<?xml version="1.0" encoding="UTF-8"?><svg id="Layer_5" xmlns="http://www.w3.org/2000/svg" viewBox="0 0 575 575"><defs><style>.cls-1{fill:#115682;}.cls-2{fill:#cecece;}.cls-3{fill:#f2f3f3;}.cls-4{fill:#c4dfee;}.cls-5{fill:#e3f2fd;}</style></defs><path class="cls-3" d="M362.17,252.82c4.68,3.41,54.92-65.25,114.82-11.17,61.04,55.11-44.68,165.24-3.17,205.08,23.89,22.92,60.05-16.34,60.05-16.34,0,0-17.02,130.74-126.51,80.73-83.84-38.3-80.19,19.69-124.85,22.3-34.69,2.03-51.23-40.17-80.26-52.14-28.18-11.63-67.32,36.66-84.55-11.63-24.43-68.48-83.75-28.44-75.92-172.61,0,0,70.86,48.75,112.99,12.22,42.13-36.53,88.75-142.64,207.35-56.47l.04.02Z"/><path class="cls-2" d="M296.36,267.68s-56.02-1.16-73.87,63.24c-19.1,68.96-50.87,97.34-102.06,91.97-40.75-4.27-69.45-46.21-78.59-125.84l65.96,60.25,127.84-95.57,60.74,5.95h-.02Z"/><path class="cls-2" d="M400.96,268.21s44.85-1.72,61.97,33.96c20.53,42.76.89,74.52-2.93,104.67l31.35-105.21-25.27-51-45.86-6.55-19.26,24.13Z"/><path class="cls-1" d="M479.17,363.63s46-129.44-127.85-96.71c0,0,68.46-67.47,118.7-29.13,47.5,36.25,9.12,125.86,9.12,125.86l.02-.02Z"/><path class="cls-1" d="M479.17,370.42c2.65,0,5.16-1.55,6.25-4.14.41-.95,10-23.57,13.74-51.11,5.13-37.8-3.52-66.45-24.99-82.85-22.79-17.38-52.33-17.53-85.45-.43-24.04,12.4-41.45,29.43-42.18,30.15-2.14,2.09-2.65,5.35-1.25,8,1.38,2.65,4.36,4.1,7.29,3.54,56.34-10.61,94.25-5.09,112.63,16.39,22.99,26.84,7.7,70.92,7.53,71.35-1.23,3.47.51,7.29,3.92,8.62.82.32,1.66.47,2.48.47h.04ZM434.97,232.87c10.65,0,21.24,2.89,30.94,10.29,17.66,13.48,21.97,35.82,20.94,57.42-2.48-6.81-6.11-13.43-11.28-19.47-18.72-21.86-52.51-30.15-100.66-24.71,15.24-10.87,37.8-23.55,60.05-23.55v.02Z"/><path class="cls-1" d="M351.33,266.9s-59.3-14.94-95.53,3.1c-54.3,27.04-49.06,94.36-100.14,121.61-77.07,41.08-113.85-94.55-113.85-94.55,0,0,53.91,43.13,91.9,23.16,62.86-33.03,52.46-96.3,133.24-106.33,38.4-4.77,84.36,53.02,84.36,53.02l.02-.02Z"/><path class="cls-1" d="M127.35,406.2c10.29,0,20.81-2.87,31.53-8.56,26.91-14.36,39.16-38.75,50.99-62.34,11.97-23.85,23.29-46.38,48.97-59.19,33.51-16.69,90.26-2.74,90.82-2.59,2.82.71,5.8-.45,7.37-2.91,1.58-2.46,1.42-5.65-.39-7.94-1.98-2.48-48.77-60.72-90.52-55.54-49.55,6.15-67.6,32.15-85.05,57.27-12.48,17.98-25.38,36.57-50.54,49.79-33.57,17.64-83.99-22.06-84.48-22.45-2.31-1.83-5.52-1.98-7.98-.37-2.46,1.62-3.6,4.63-2.83,7.48.91,3.36,22.82,82.37,69.67,102.62,7.31,3.17,14.79,4.74,22.45,4.74l-.02-.02ZM302.29,254.26c-16.69,0-34.74,2.29-49.53,9.64-29.75,14.81-42.63,40.48-55.07,65.27-11.38,22.69-22.15,44.12-45.22,56.43-15.03,8.02-28.81,9.12-42.15,3.34-28.03-12.12-46.64-51.32-55.64-74.99,20.16,11.97,54.36,26.91,82.22,12.29,28.12-14.77,42.61-35.67,55.39-54.08,17.16-24.76,32-46.12,75.54-51.51,21.35-2.68,47.98,18.67,65.03,35.88-8.6-1.23-19.28-2.26-30.55-2.26h-.02Z"/><path class="cls-1" d="M280.04,543.79c.95,0,1.92-.02,2.89-.09,18.35-1.08,29.76-10.55,39.83-18.91,17.23-14.32,32.13-26.67,81.79-3.99,32.67,14.92,60.98,15.96,84.16,3.11,42.97-23.85,51.58-86.49,51.92-89.14.39-2.93-1.19-5.8-3.88-7.05-2.69-1.25-5.89-.62-7.89,1.56-5.35,5.78-22.4,20.89-36.87,21.32-5.15.17-9.57-1.57-13.46-5.28-15.68-15.03-4.74-45.99,6.81-78.77,15.44-43.73,32.93-93.3-3.79-126.45-51.71-46.68-97.77-8.84-115.1,5.41-1.16.97-2.5,2.05-3.6,2.93-43.28-30.51-81.36-39.01-116.29-25.94-30.54,11.41-52.57,36.89-72,59.36-8.54,9.85-16.58,19.19-24.19,25.79-37.63,32.62-104.02-12.25-104.69-12.7-2.03-1.4-4.66-1.57-6.86-.5-2.2,1.08-3.67,3.28-3.79,5.74-5.18,95.18,19.23,114.18,42.84,132.55,12.96,10.09,25.21,19.62,33.46,42.72,12.85,36.01,38.66,26.8,57.51,20.1,11.49-4.1,22.36-7.96,30.84-4.46,10.5,4.33,19.49,13.43,29,23.05,14.4,14.6,29.31,29.67,51.34,29.67l.02-.02ZM359.07,494.77c-21.5,0-33.73,10.16-45.02,19.54-9.68,8.04-18.03,14.96-31.91,15.78-17.53,1.06-30.25-11.88-43.75-25.55-10.05-10.18-20.42-20.68-33.49-26.07-13.32-5.5-27.82-.32-40.6,4.22-21.5,7.66-32.19,10.35-40.11-11.84-9.57-26.82-24.62-38.55-37.93-48.88-20.83-16.22-40.54-31.54-38.12-109.56,22.1,12.55,75.08,36.78,111.16,5.52,8.34-7.24,16.71-16.92,25.57-27.17,18.37-21.24,39.2-45.32,66.48-55.52,31.2-11.67,66.15-2.98,106.82,26.59,5.24,3.8,9.9,0,16.92-5.8,17.64-14.49,54.34-44.64,97.34-5.82,29.97,27.06,14.77,70.15.09,111.8-13.07,37.02-25.4,72.02-3.41,93.13,6.56,6.3,14.34,9.34,23.33,9.08,11.02-.34,21.86-5.95,30.3-11.84-5.56,18.93-17.35,46.75-40.66,59.64-19.17,10.61-43.36,9.4-71.85-3.6-21.67-9.9-38.1-13.63-51.12-13.63l-.02-.02Z"/><path class="cls-5" d="M401.16,505.58l-49.85,51.73-49.88-51.73V209.95h99.73v120.1l-22.7,29.05,22.7,29.05-22.7,29.02,22.7,29.04-22.7,29.05,22.7,30.32Z"/><path class="cls-4" d="M351.11,557.31l.2-311.97,49.66-19.34v104.06l-22.69,29.05,22.69,29.05-22.69,29.02,22.69,29.05-22.69,29.05,22.69,30.32-49.86,51.73Z"/><path d="M348.78,264.96c4.16,0,4.16-6.47,0-6.47s-4.16,6.47,0,6.47Z"/><path class="cls-1" d="M351.11,564.12c-1.85,0-3.63-.76-4.9-2.09l-49.87-51.73c-1.23-1.27-1.9-2.95-1.9-4.72V209.95c0-3.75,3.04-6.82,6.81-6.82h99.75c3.75,0,6.81,3.04,6.81,6.82v120.1c0,1.53-.52,3-1.45,4.21l-19.43,24.84,19.43,24.84c1.92,2.46,1.92,5.93,0,8.39l-19.43,24.84,19.43,24.84c1.92,2.46,1.92,5.93,0,8.39l-19.49,24.93,19.58,26.15c2,2.67,1.77,6.4-.54,8.8l-49.87,51.73c-1.29,1.34-3.06,2.09-4.9,2.09l-.04.02ZM308.05,502.84l43.06,44.66,40.95-42.48-19.24-25.71c-1.85-2.46-1.81-5.84.09-8.28l19.43-24.84-19.43-24.84c-1.92-2.46-1.92-5.93,0-8.39l19.43-24.84-19.43-24.84c-1.92-2.46-1.92-5.93,0-8.39l21.26-27.19v-110.96h-86.12v286.1Z"/><path class="cls-1" d="M351.11,473.32c3.75,0,6.82-3.06,6.82-6.81l-.2-172.61c0-3.75-3.06-6.81-6.81-6.81s-6.81,3.06-6.81,6.81l.19,172.61c0,3.75,3.06,6.81,6.81,6.81Z"/><path class="cls-5" d="M241.89,75.14l108.92-62.88,108.89,62.88v125.73l-108.89,62.88-108.92-62.88v-125.73Z"/><path class="cls-4" d="M351.11,263.75l108.92-62.88v-125.11l-108.92-63.5v251.49Z"/><path class="cls-1" d="M323.29,118.54l-81.25-42.78v49.75l81.25,42.78c17.31,9.12,38,9.12,55.31,0l81.25-42.78v-49.75l-81.25,42.78c-17.31,9.12-38,9.12-55.31,0Z"/><path class="cls-1" d="M350.96,176.27c-9.68,0-19.36-2.33-28.18-6.96l-81.85-43.11v-52.31l82.91,43.66c16.99,8.95,37.26,8.95,54.25,0l82.91-43.66v52.31l-81.86,43.11c-8.82,4.63-18.5,6.96-28.18,6.96ZM243.18,124.84l80.63,42.46c16.99,8.95,37.26,8.95,54.25,0l80.63-42.46v-47.18l-79.57,41.9c-17.64,9.29-38.73,9.29-56.37,0l-79.57-41.9v47.18Z"/><path class="cls-5" d="M424.64,111.58c4.53,8.56-3.93,21.93-18.91,29.86-14.99,7.93-30.79,7.42-35.32-1.14l54.23-28.72Z"/><path class="cls-5" d="M277.28,111.58c-4.53,8.56,3.93,21.93,18.91,29.86,14.97,7.93,30.79,7.42,35.32-1.14l-54.23-28.72Z"/><path class="cls-1" d="M350.96,270.56c-1.16,0-2.35-.3-3.41-.91l-91.51-52.83c-12.81-7.39-20.79-21.2-20.79-35.99v-105.68c0-2.44,1.29-4.68,3.41-5.91l91.51-52.83c12.81-7.4,28.74-7.4,41.57,0l91.51,52.83c2.11,1.21,3.41,3.47,3.41,5.91v105.68c0,14.79-7.96,28.59-20.79,35.99l-91.51,52.83c-1.06.6-2.22.91-3.41.91ZM248.88,79.06v101.76c0,9.96,5.35,19.21,13.97,24.19l88.11,50.87,88.11-50.87c8.62-4.98,13.97-14.25,13.97-24.19v-101.76l-88.11-50.87c-8.62-4.98-19.32-4.98-27.95,0l-88.11,50.87Z"/></svg>