<svg xmlns="http://www.w3.org/2000/svg" viewBox="3.33349609375 151.49999786376952 552.2975087890625 272"> <svg xmlns="http://www.w3.org/2000/svg" viewBox="0.5 0.5 132 137" fill="none" height="131.99999999999997" width="127.18249566813257" y="221.49999786376952" x="73.33349609375" preserveAspectRatio="xMinYMin" style="overflow: visible;"><path fill-rule="evenodd" clip-rule="evenodd" d="M0.5 23C0.5 10.5736 10.5736 0.5 23 0.5H110C122.426 0.5 132.5 10.5736 132.5 23V31C132.5 32.3807 131.381 33.5 130 33.5C128.619 33.5 127.5 32.3807 127.5 31V23C127.5 13.335 119.665 5.5 110 5.5H23C13.335 5.5 5.5 13.335 5.5 23V115C5.5 124.665 13.335 132.5 23 132.5H110C119.665 132.5 127.5 124.665 127.5 115V107C127.5 105.619 128.619 104.5 130 104.5C131.381 104.5 132.5 105.619 132.5 107V115C132.5 127.426 122.426 137.5 110 137.5H23C10.5736 137.5 0.5 127.426 0.5 115V23Z" fill="url(#paint0_linear_24401_3745)" style="fill: #13cbec; fill-opacity: 1;"></path><linearGradient id="paint0_linear_24401_3745" x1="124.5" y1="8" x2="1" y2="137" gradientUnits="userSpaceOnUse" style=""><stop stop-color="#7CD0E4"></stop><stop offset="1" stop-color="#8AE0AC"></stop></linearGradient></svg> <svg xmlns="http://www.w3.org/2000/svg" x="215.001" y="323" viewBox="1 -0.05000000447034836 270.6300048828125 13.360000610351562" height="13.360000610351562" width="270.6300048828125" style="overflow: visible;"><g fill="#1a1a1a" fill-opacity="1" style=""><path d="M10.10 10.37L10.79 11.83Q10.49 12.04 9.96 12.29Q9.44 12.55 8.73 12.72Q8.02 12.89 7.19 12.89L7.19 12.89Q5.76 12.87 4.62 12.38Q3.47 11.88 2.67 11.03Q1.87 10.18 1.44 9.07Q1.00 7.96 1.00 6.70L1.00 6.70Q1.00 5.32 1.45 4.16Q1.90 2.99 2.72 2.13Q3.54 1.28 4.65 0.80Q5.76 0.32 7.09 0.32L7.09 0.32Q8.19 0.32 9.10 0.62Q10.00 0.92 10.64 1.33L10.64 1.33L9.98 2.86Q9.47 2.52 8.75 2.21Q8.02 1.90 7.14 1.90L7.14 1.90Q6.24 1.90 5.44 2.26Q4.64 2.62 4.03 3.26Q3.42 3.91 3.07 4.77Q2.72 5.63 2.72 6.61L2.72 6.61Q2.72 7.62 3.03 8.47Q3.35 9.33 3.94 9.96Q4.52 10.59 5.36 10.95Q6.19 11.31 7.23 11.31L7.23 11.31Q8.16 11.31 8.89 11.02Q9.62 10.73 10.10 10.37L10.10 10.37ZM14.50 6.61L14.50 6.61Q14.50 5.34 14.99 4.21Q15.47 3.08 16.34 2.20Q17.20 1.33 18.33 0.82Q19.47 0.32 20.77 0.32L20.77 0.32Q22.07 0.32 23.20 0.82Q24.33 1.33 25.20 2.20Q26.08 3.08 26.57 4.21Q27.06 5.34 27.06 6.61L27.06 6.61Q27.06 7.92 26.57 9.06Q26.08 10.20 25.21 11.06Q24.34 11.92 23.21 12.40Q22.07 12.89 20.77 12.89L20.77 12.89Q19.47 12.89 18.33 12.41Q17.20 11.93 16.34 11.08Q15.47 10.23 14.99 9.10Q14.50 7.96 14.50 6.61ZM16.20 6.63L16.20 6.63Q16.20 7.60 16.56 8.44Q16.92 9.28 17.54 9.93Q18.17 10.57 19.01 10.94Q19.84 11.31 20.81 11.31L20.81 11.31Q21.76 11.31 22.59 10.94Q23.43 10.57 24.04 9.93Q24.65 9.28 25.01 8.44Q25.36 7.60 25.36 6.61L25.36 6.61Q25.36 5.64 25.01 4.79Q24.65 3.93 24.02 3.28Q23.39 2.64 22.56 2.27Q21.73 1.90 20.77 1.90L20.77 1.90Q19.80 1.90 18.97 2.28Q18.14 2.65 17.51 3.30Q16.88 3.94 16.54 4.80Q16.20 5.66 16.20 6.63ZM42.23 13.14L42.18 13.14L32.67 3.50L33.15 3.62L33.18 12.75L31.54 12.75L31.54 0.09L31.62 0.09L41.02 9.76L40.63 9.67L40.60 0.46L42.23 0.46L42.23 13.14ZM54.45 1.38L53.82 2.65Q53.19 2.33 52.45 2.09Q51.70 1.85 50.98 1.85L50.98 1.85Q50.00 1.85 49.41 2.31Q48.82 2.77 48.82 3.54L48.82 3.54Q48.82 4.11 49.20 4.51Q49.57 4.91 50.18 5.20Q50.80 5.49 51.46 5.75L51.46 5.75Q52.04 5.97 52.60 6.24Q53.16 6.51 53.61 6.92Q54.06 7.33 54.32 7.92Q54.59 8.52 54.59 9.40L54.59 9.40Q54.59 10.37 54.10 11.17Q53.62 11.97 52.72 12.43Q51.82 12.89 50.58 12.89L50.58 12.89Q49.76 12.89 49.02 12.70Q48.28 12.51 47.65 12.21Q47.02 11.92 46.53 11.59L46.53 11.59L47.26 10.30Q47.67 10.59 48.20 10.85Q48.72 11.12 49.30 11.28Q49.88 11.44 50.42 11.44L50.42 11.44Q51.00 11.44 51.57 11.23Q52.14 11.02 52.51 10.57Q52.89 10.13 52.89 9.40L52.89 9.40Q52.89 8.77 52.56 8.36Q52.22 7.94 51.68 7.64Q51.14 7.34 50.52 7.11L50.52 7.11Q49.95 6.89 49.35 6.62Q48.76 6.36 48.25 5.98Q47.74 5.59 47.43 5.03Q47.12 4.47 47.12 3.67L47.12 3.67Q47.12 2.70 47.59 1.98Q48.06 1.26 48.88 0.84Q49.69 0.43 50.75 0.39L50.75 0.39Q51.94 0.39 52.84 0.68Q53.75 0.97 54.45 1.38L54.45 1.38ZM60.54 0.46L60.54 8.40Q60.54 9.23 60.94 9.89Q61.34 10.54 62.00 10.91Q62.66 11.29 63.50 11.29L63.50 11.29Q64.36 11.29 65.04 10.91Q65.72 10.54 66.11 9.89Q66.50 9.23 66.50 8.40L66.50 8.40L66.50 0.46L68.12 0.46L68.12 8.45Q68.12 9.79 67.50 10.80Q66.88 11.80 65.83 12.34Q64.79 12.89 63.50 12.89L63.50 12.89L63.50 12.89Q62.20 12.89 61.17 12.34Q60.13 11.80 59.52 10.80Q58.91 9.79 58.91 8.45L58.91 8.45L58.91 0.46L60.54 0.46ZM73.19 12.75L73.19 0.46L74.83 0.46L74.83 11.17L81.07 11.17L81.07 12.75L73.19 12.75ZM83.13 2.04L83.13 0.46L91.29 0.46L91.29 2.04L87.99 2.04L87.99 12.75L86.34 12.75L86.34 2.04L83.13 2.04ZM93.13 11.85L93.13 11.85Q93.13 11.48 93.41 11.21Q93.69 10.95 94.03 10.95L94.03 10.95Q94.33 10.95 94.61 11.21Q94.89 11.48 94.89 11.85L94.89 11.85Q94.89 12.26 94.61 12.50Q94.33 12.75 94.03 12.75L94.03 12.75Q93.69 12.75 93.41 12.50Q93.13 12.26 93.13 11.85L93.13 11.85ZM109.89 12.75L105.94 12.75L105.94 0.46L109.29 0.46Q111.11 0.46 112.40 1.02Q113.68 1.58 114.46 2.50Q115.24 3.42 115.61 4.53Q115.97 5.64 115.97 6.75L115.97 6.75Q115.97 8.14 115.49 9.25Q115.01 10.35 114.16 11.14Q113.31 11.92 112.21 12.33Q111.11 12.75 109.89 12.75L109.89 12.75ZM107.59 2.04L107.59 11.17L109.57 11.17Q110.59 11.17 111.44 10.86Q112.30 10.56 112.94 9.98Q113.58 9.40 113.93 8.56Q114.29 7.72 114.29 6.65L114.29 6.65Q114.29 5.51 113.92 4.65Q113.54 3.79 112.90 3.21Q112.25 2.64 111.44 2.34Q110.62 2.04 109.72 2.04L109.72 2.04L107.59 2.04ZM120.45 12.75L120.45 0.46L128.44 0.46L128.44 2.04L122.09 2.04L122.09 5.78L127.76 5.78L127.76 7.36L122.09 7.36L122.09 11.17L128.67 11.17L128.67 12.75L120.45 12.75ZM132.16 0.46L134.11 0.46L138.16 10.63L137.22 10.44L141.07 0.46L142.99 0.46L137.56 13.31L132.16 0.46ZM147.15 12.75L147.15 0.46L155.14 0.46L155.14 2.04L148.80 2.04L148.80 5.78L154.46 5.78L154.46 7.36L148.80 7.36L148.80 11.17L155.38 11.17L155.38 12.75L147.15 12.75ZM159.94 12.75L159.94 0.46L161.59 0.46L161.59 11.17L167.82 11.17L167.82 12.75L159.94 12.75ZM171.22 6.61L171.22 6.61Q171.22 5.34 171.71 4.21Q172.19 3.08 173.06 2.20Q173.93 1.33 175.06 0.82Q176.19 0.32 177.50 0.32L177.50 0.32Q178.79 0.32 179.92 0.82Q181.05 1.33 181.93 2.20Q182.80 3.08 183.29 4.21Q183.79 5.34 183.79 6.61L183.79 6.61Q183.79 7.92 183.29 9.06Q182.80 10.20 181.93 11.06Q181.07 11.92 179.93 12.40Q178.79 12.89 177.50 12.89L177.50 12.89Q176.19 12.89 175.06 12.41Q173.93 11.93 173.06 11.08Q172.19 10.23 171.71 9.10Q171.22 7.96 171.22 6.61ZM172.92 6.63L172.92 6.63Q172.92 7.60 173.28 8.44Q173.64 9.28 174.27 9.93Q174.90 10.57 175.73 10.94Q176.56 11.31 177.53 11.31L177.53 11.31Q178.48 11.31 179.32 10.94Q180.15 10.57 180.76 9.93Q181.37 9.28 181.73 8.44Q182.09 7.60 182.09 6.61L182.09 6.61Q182.09 5.64 181.73 4.79Q181.37 3.93 180.74 3.28Q180.12 2.64 179.28 2.27Q178.45 1.90 177.50 1.90L177.50 1.90Q176.53 1.90 175.69 2.28Q174.86 2.65 174.23 3.30Q173.60 3.94 173.26 4.80Q172.92 5.66 172.92 6.63ZM188.26 0.46L191.54 0.46Q192.88 0.46 193.83 0.91Q194.79 1.36 195.30 2.21Q195.82 3.06 195.82 4.27L195.82 4.27Q195.82 5.00 195.60 5.70Q195.38 6.41 194.90 6.98Q194.41 7.55 193.63 7.89Q192.85 8.23 191.73 8.23L191.73 8.23L189.91 8.23L189.91 12.75L188.26 12.75L188.26 0.46ZM189.91 6.65L191.71 6.65Q192.44 6.65 192.92 6.41Q193.39 6.17 193.66 5.81Q193.94 5.44 194.05 5.03Q194.17 4.62 194.17 4.30L194.17 4.30Q194.17 3.93 194.05 3.53Q193.94 3.13 193.66 2.80Q193.37 2.47 192.92 2.25Q192.47 2.04 191.81 2.04L191.81 2.04L189.91 2.04L189.91 6.65ZM197.32 11.85L197.32 11.85Q197.32 11.48 197.60 11.21Q197.88 10.95 198.22 10.95L198.22 10.95Q198.53 10.95 198.81 11.21Q199.09 11.48 199.09 11.85L199.09 11.85Q199.09 12.26 198.81 12.50Q198.53 12.75 198.22 12.75L198.22 12.75Q197.88 12.75 197.60 12.50Q197.32 12.26 197.32 11.85L197.32 11.85ZM209.24 2.04L209.24 0.46L217.40 0.46L217.40 2.04L214.10 2.04L214.10 12.75L212.45 12.75L212.45 2.04L209.24 2.04ZM221.71 0.46L224.98 0.46Q225.91 0.46 226.70 0.71Q227.49 0.95 228.08 1.44Q228.67 1.92 229.00 2.63Q229.33 3.33 229.33 4.27L229.33 4.27Q229.33 5.00 229.12 5.70Q228.90 6.39 228.41 6.96Q227.92 7.53 227.13 7.88Q226.34 8.23 225.18 8.23L225.18 8.23L223.36 8.23L223.36 12.75L221.71 12.75L221.71 0.46ZM223.36 6.65L225.15 6.65Q225.88 6.65 226.36 6.43Q226.85 6.21 227.12 5.86Q227.39 5.51 227.51 5.10Q227.63 4.69 227.63 4.34L227.63 4.34Q227.63 3.96 227.50 3.56Q227.37 3.16 227.09 2.82Q226.81 2.48 226.36 2.26Q225.91 2.04 225.27 2.04L225.27 2.04L223.36 2.04L223.36 6.65ZM225.22 7.63L227.17 7.58L230.38 12.75L228.48 12.75L225.22 7.63ZM235.01 12.75L233.39 12.75L238.76-0.05L238.87-0.05L244.22 12.75L242.33 12.75L238.32 2.53L239.50 1.77L235.01 12.75ZM236.06 9.52L236.54 8.09L241.11 8.09L241.65 9.52L236.06 9.52ZM248.23 12.75L248.23 0.46L249.88 0.46L249.88 12.75L248.23 12.75ZM265.81 13.14L265.76 13.14L256.26 3.50L256.73 3.62L256.77 12.75L255.12 12.75L255.12 0.09L255.20 0.09L264.60 9.76L264.21 9.67L264.18 0.46L265.81 0.46L265.81 13.14ZM269.86 11.85L269.86 11.85Q269.86 11.48 270.14 11.21Q270.42 10.95 270.76 10.95L270.76 10.95Q271.06 10.95 271.35 11.21Q271.63 11.48 271.63 11.85L271.63 11.85Q271.63 12.26 271.35 12.50Q271.06 12.75 270.76 12.75L270.76 12.75Q270.42 12.75 270.14 12.50Q269.86 12.26 269.86 11.85L269.86 11.85Z" transform="translate(0, 0)"></path></g></svg> <svg xmlns="http://www.w3.org/2000/svg" x="139" y="261" viewBox="3.940000057220459 5.28000020980835 346.63079833984375 43.68000030517578" height="43.68000030517578" width="346.63079833984375" style="overflow: visible;"><g fill="#1a1a1a" fill-opacity="1" style=""><path d="M6.29 48.86L6.29 48.86Q5.18 48.86 4.56 48.24Q3.94 47.62 3.94 46.46L3.94 46.46L3.94 16.85Q3.94 15.65 4.54 15Q5.14 14.35 6.14 14.35L6.14 14.35Q7.01 14.35 7.46 14.66Q7.92 14.98 8.54 15.79L8.54 15.79L28.32 41.86L27.12 41.86L27.12 16.70Q27.12 15.60 27.72 14.98Q28.32 14.35 29.42 14.35L29.42 14.35Q30.58 14.35 31.15 14.98Q31.73 15.60 31.73 16.70L31.73 16.70L31.73 46.51Q31.73 47.62 31.18 48.24Q30.62 48.86 29.71 48.86L29.71 48.86Q28.85 48.86 28.30 48.53Q27.74 48.19 27.12 47.38L27.12 47.38L7.44 21.36L8.54 21.36L8.54 46.46Q8.54 47.62 7.97 48.24Q7.39 48.86 6.29 48.86ZM45.94 48.86L45.94 48.86Q44.74 48.86 44.09 48.19Q43.44 47.52 43.44 46.32L43.44 46.32L43.44 16.90Q43.44 15.65 44.09 15Q44.74 14.35 45.94 14.35L45.94 14.35Q47.14 14.35 47.78 15Q48.43 15.65 48.43 16.90L48.43 16.90L48.43 46.32Q48.43 47.52 47.81 48.19Q47.18 48.86 45.94 48.86ZM62.64 48.86L62.64 48.86Q61.44 48.86 60.79 48.19Q60.14 47.52 60.14 46.32L60.14 46.32L60.14 16.85Q60.14 15.60 60.79 14.98Q61.44 14.35 62.64 14.35L62.64 14.35Q63.84 14.35 64.49 14.98Q65.14 15.60 65.14 16.85L65.14 16.85L65.14 29.90L65.23 29.90L79.97 15.65Q80.69 14.98 81.34 14.66Q81.98 14.35 82.80 14.35L82.80 14.35Q83.90 14.35 84.41 14.90Q84.91 15.46 84.82 16.22Q84.72 16.99 84.00 17.71L84.00 17.71L68.69 32.30L68.78 29.86L84.72 45.22Q85.58 46.03 85.63 46.90Q85.68 47.76 85.10 48.31Q84.53 48.86 83.47 48.86L83.47 48.86Q82.51 48.86 81.94 48.48Q81.36 48.10 80.59 47.38L80.59 47.38L65.23 32.74L65.14 32.74L65.14 46.32Q65.14 47.52 64.51 48.19Q63.89 48.86 62.64 48.86ZM108.14 48.96L108.14 48.96Q103.34 48.96 99.77 46.82Q96.19 44.69 94.25 40.78Q92.30 36.86 92.30 31.58L92.30 31.58Q92.30 27.60 93.41 24.41Q94.51 21.22 96.58 18.94Q98.64 16.66 101.57 15.46Q104.50 14.26 108.14 14.26L108.14 14.26Q112.99 14.26 116.54 16.37Q120.10 18.48 122.04 22.37Q123.98 26.26 123.98 31.54L123.98 31.54Q123.98 35.52 122.88 38.74Q121.78 41.95 119.69 44.26Q117.60 46.56 114.67 47.76Q111.74 48.96 108.14 48.96ZM108.14 44.64L108.14 44.64Q111.50 44.64 113.88 43.10Q116.26 41.57 117.53 38.64Q118.80 35.71 118.80 31.58L118.80 31.58Q118.80 25.39 116.02 21.98Q113.23 18.58 108.14 18.58L108.14 18.58Q104.78 18.58 102.41 20.09Q100.03 21.60 98.76 24.53Q97.49 27.46 97.49 31.58L97.49 31.58Q97.49 37.73 100.30 41.18Q103.10 44.64 108.14 44.64ZM153.50 48.86L153.50 48.86Q152.30 48.86 151.66 48.19Q151.01 47.52 151.01 46.32L151.01 46.32L151.01 16.85Q151.01 15.60 151.66 14.98Q152.30 14.35 153.50 14.35L153.50 14.35Q154.70 14.35 155.35 14.98Q156.00 15.60 156.00 16.85L156.00 16.85L156.00 29.90L156.10 29.90L170.83 15.65Q171.55 14.98 172.20 14.66Q172.85 14.35 173.66 14.35L173.66 14.35Q174.77 14.35 175.27 14.90Q175.78 15.46 175.68 16.22Q175.58 16.99 174.86 17.71L174.86 17.71L159.55 32.30L159.65 29.86L175.58 45.22Q176.45 46.03 176.50 46.90Q176.54 47.76 175.97 48.31Q175.39 48.86 174.34 48.86L174.34 48.86Q173.38 48.86 172.80 48.48Q172.22 48.10 171.46 47.38L171.46 47.38L156.10 32.74L156.00 32.74L156.00 46.32Q156.00 47.52 155.38 48.19Q154.75 48.86 153.50 48.86ZM199.01 48.96L199.01 48.96Q194.21 48.96 190.63 46.82Q187.06 44.69 185.11 40.78Q183.17 36.86 183.17 31.58L183.17 31.58Q183.17 27.60 184.27 24.41Q185.38 21.22 187.44 18.94Q189.50 16.66 192.43 15.46Q195.36 14.26 199.01 14.26L199.01 14.26Q203.86 14.26 207.41 16.37Q210.96 18.48 212.90 22.37Q214.85 26.26 214.85 31.54L214.85 31.54Q214.85 35.52 213.74 38.74Q212.64 41.95 210.55 44.26Q208.46 46.56 205.54 47.76Q202.61 48.96 199.01 48.96ZM199.01 44.64L199.01 44.64Q202.37 44.64 204.74 43.10Q207.12 41.57 208.39 38.64Q209.66 35.71 209.66 31.58L209.66 31.58Q209.66 25.39 206.88 21.98Q204.10 18.58 199.01 18.58L199.01 18.58Q195.65 18.58 193.27 20.09Q190.90 21.60 189.62 24.53Q188.35 27.46 188.35 31.58L188.35 31.58Q188.35 37.73 191.16 41.18Q193.97 44.64 199.01 44.64ZM203.33 10.37L203.33 10.37Q202.08 10.37 201.41 9.70Q200.74 9.02 200.74 7.78L200.74 7.78Q200.74 6.58 201.41 5.93Q202.08 5.28 203.33 5.28L203.33 5.28Q204.53 5.28 205.20 5.93Q205.87 6.58 205.87 7.78L205.87 7.78Q205.87 9.02 205.22 9.70Q204.58 10.37 203.33 10.37ZM194.64 10.37L194.64 10.37Q193.44 10.37 192.74 9.70Q192.05 9.02 192.05 7.78L192.05 7.78Q192.05 6.58 192.74 5.93Q193.44 5.28 194.64 5.28L194.64 5.28Q195.89 5.28 196.56 5.93Q197.23 6.58 197.23 7.78L197.23 7.78Q197.23 9.02 196.56 9.70Q195.89 10.37 194.64 10.37ZM240.05 48.53L228.05 48.53Q226.75 48.53 226.06 47.83Q225.36 47.14 225.36 45.84L225.36 45.84L225.36 17.38Q225.36 16.08 226.06 15.38Q226.75 14.69 228.05 14.69L228.05 14.69L239.47 14.69Q242.98 14.69 245.45 15.74Q247.92 16.80 249.24 18.77Q250.56 20.74 250.56 23.52L250.56 23.52Q250.56 26.59 248.74 28.70Q246.91 30.82 243.79 31.54L243.79 31.54L243.79 30.82Q247.34 31.30 249.36 33.48Q251.38 35.66 251.38 39.17L251.38 39.17Q251.38 43.68 248.40 46.10Q245.42 48.53 240.05 48.53L240.05 48.53ZM230.16 33.31L230.16 44.69L239.47 44.69Q243.07 44.69 244.80 43.27Q246.53 41.86 246.53 38.98L246.53 38.98Q246.53 36.10 244.80 34.70Q243.07 33.31 239.47 33.31L239.47 33.31L230.16 33.31ZM230.16 18.53L230.16 29.47L238.70 29.47Q242.16 29.47 243.94 28.08Q245.71 26.69 245.71 24.00L245.71 24.00Q245.71 21.31 243.94 19.92Q242.16 18.53 238.70 18.53L238.70 18.53L230.16 18.53ZM281.81 48.53L264.48 48.53Q263.28 48.53 262.61 47.86Q261.94 47.18 261.94 45.98L261.94 45.98L261.94 17.04Q261.94 15.79 262.58 15.14Q263.23 14.50 264.43 14.50L264.43 14.50Q265.63 14.50 266.28 15.14Q266.93 15.79 266.93 17.04L266.93 17.04L266.93 44.26L281.81 44.26Q282.86 44.26 283.44 44.81Q284.02 45.36 284.02 46.37L284.02 46.37Q284.02 47.38 283.44 47.95Q282.86 48.53 281.81 48.53L281.81 48.53ZM312.48 48.53L294.96 48.53Q293.66 48.53 292.97 47.83Q292.27 47.14 292.27 45.84L292.27 45.84L292.27 17.38Q292.27 16.08 292.97 15.38Q293.66 14.69 294.96 14.69L294.96 14.69L312.48 14.69Q313.49 14.69 314.02 15.19Q314.54 15.70 314.54 16.66L314.54 16.66Q314.54 17.66 314.02 18.19Q313.49 18.72 312.48 18.72L312.48 18.72L297.07 18.72L297.07 29.33L311.42 29.33Q312.48 29.33 312.98 29.86Q313.49 30.38 313.49 31.34L313.49 31.34Q313.49 32.35 312.98 32.86Q312.48 33.36 311.42 33.36L311.42 33.36L297.07 33.36L297.07 44.50L312.48 44.50Q313.49 44.50 314.02 45.02Q314.54 45.55 314.54 46.51L314.54 46.51Q314.54 47.52 314.02 48.02Q313.49 48.53 312.48 48.53L312.48 48.53ZM326.88 48.86L326.88 48.86Q325.68 48.86 325.03 48.19Q324.38 47.52 324.38 46.32L324.38 46.32L324.38 17.23Q324.38 15.98 325.06 15.34Q325.73 14.69 326.93 14.69L326.93 14.69L338.40 14.69Q343.87 14.69 346.85 17.28Q349.82 19.87 349.82 24.62L349.82 24.62Q349.82 27.70 348.48 29.90Q347.14 32.11 344.57 33.26Q342 34.42 338.40 34.42L338.40 34.42L338.83 33.74L340.08 33.74Q342 33.74 343.42 34.70Q344.83 35.66 345.98 37.78L345.98 37.78L350.11 45.46Q350.59 46.32 350.57 47.11Q350.54 47.90 349.99 48.38Q349.44 48.86 348.43 48.86L348.43 48.86Q347.38 48.86 346.73 48.41Q346.08 47.95 345.55 47.04L345.55 47.04L340.51 37.73Q339.50 35.86 338.21 35.21Q336.91 34.56 334.80 34.56L334.80 34.56L329.38 34.56L329.38 46.32Q329.38 47.52 328.75 48.19Q328.13 48.86 326.88 48.86ZM329.38 18.67L329.38 30.82L337.58 30.82Q341.23 30.82 343.10 29.28Q344.98 27.74 344.98 24.72L344.98 24.72Q344.98 21.74 343.10 20.21Q341.23 18.67 337.58 18.67L337.58 18.67L329.38 18.67Z" transform="translate(0, 0)"></path></g></svg></svg>